<?xml version="1.0" encoding="UTF-8" standalone="no"?>
<!-- Created with Inkscape (http://www.inkscape.org/) -->

<svg
   xmlns:dc="http://purl.org/dc/elements/1.1/"
   xmlns:cc="http://creativecommons.org/ns#"
   xmlns:rdf="http://www.w3.org/1999/02/22-rdf-syntax-ns#"
   xmlns:svg="http://www.w3.org/2000/svg"
   xmlns="http://www.w3.org/2000/svg"
   xmlns:sodipodi="http://sodipodi.sourceforge.net/DTD/sodipodi-0.dtd"
   xmlns:inkscape="http://www.inkscape.org/namespaces/inkscape"
   width="210mm"
   height="297mm"
   viewBox="0 0 210 297"
   version="1.1"
   id="svg8"
   inkscape:export-filename="C:\Users\manogray\Downloads\monitora.png"
   inkscape:export-xdpi="96"
   inkscape:export-ydpi="96"
   inkscape:version="0.92.3 (2405546, 2018-03-11)"
   sodipodi:docname="monitora-logo.svg">
  <defs
     id="defs2">
    <filter
       style="color-interpolation-filters:sRGB;"
       inkscape:label="Drop Shadow"
       id="filter4892">
      <feFlood
         flood-opacity="0"
         flood-color="rgb(0,0,0)"
         result="flood"
         id="feFlood4882" />
      <feComposite
         in="flood"
         in2="SourceGraphic"
         operator="in"
         result="composite1"
         id="feComposite4884" />
      <feGaussianBlur
         in="composite1"
         stdDeviation="1.7"
         result="blur"
         id="feGaussianBlur4886" />
      <feOffset
         dx="4.3"
         dy="2"
         result="offset"
         id="feOffset4888" />
      <feComposite
         in="SourceGraphic"
         in2="offset"
         operator="over"
         result="fbSourceGraphic"
         id="feComposite4890" />
      <feColorMatrix
         result="fbSourceGraphicAlpha"
         in="fbSourceGraphic"
         values="0 0 0 -1 0 0 0 0 -1 0 0 0 0 -1 0 0 0 0 1 0"
         id="feColorMatrix5026" />
      <feFlood
         id="feFlood5028"
         flood-opacity="0"
         flood-color="rgb(0,0,0)"
         result="flood"
         in="fbSourceGraphic" />
      <feComposite
         in2="fbSourceGraphic"
         id="feComposite5030"
         in="flood"
         operator="in"
         result="composite1" />
      <feGaussianBlur
         id="feGaussianBlur5032"
         in="composite1"
         stdDeviation="7"
         result="blur" />
      <feOffset
         id="feOffset5034"
         dx="7.1"
         dy="2"
         result="offset" />
      <feComposite
         in2="offset"
         id="feComposite5036"
         in="fbSourceGraphic"
         operator="over"
         result="composite2" />
    </filter>
  </defs>
  <sodipodi:namedview
     id="base"
     pagecolor="#ffffff"
     bordercolor="#666666"
     borderopacity="1.0"
     inkscape:pageopacity="0.0"
     inkscape:pageshadow="2"
     inkscape:zoom="0.7"
     inkscape:cx="337.17284"
     inkscape:cy="570.32416"
     inkscape:document-units="mm"
     inkscape:current-layer="layer1"
     showgrid="false"
     inkscape:window-width="1280"
     inkscape:window-height="1001"
     inkscape:window-x="-8"
     inkscape:window-y="-8"
     inkscape:window-maximized="1" />
  <metadata
     id="metadata5">
    <rdf:RDF>
      <cc:Work
         rdf:about="">
        <dc:format>image/svg+xml</dc:format>
        <dc:type
           rdf:resource="http://purl.org/dc/dcmitype/StillImage" />
        <dc:title></dc:title>
      </cc:Work>
    </rdf:RDF>
  </metadata>
  <g
     inkscape:label="Camada 1"
     inkscape:groupmode="layer"
     id="layer1"
     style="display:inline">
    <g
       id="g5292"
       transform="matrix(1.2886715,0,0,1.2798445,-29.294793,-38.594435)">
      <ellipse
         style="stroke-width:0.29007706;filter:url(#filter4892)"
         ry="68.508186"
         rx="65.295387"
         cy="121.90251"
         cx="104.98289"
         id="path10" />
      <path
         inkscape:connector-curvature="0"
         id="path4688"
         d="m 63.00863,141.0167 v -10.21745 l 1.521354,0.17018 c 0.836745,0.0936 1.819011,0.31827 2.182813,0.49925 0.363801,0.18098 0.965871,0.47043 1.337931,0.64322 0.861704,0.40018 2.251476,1.68434 3.380655,3.12374 l 0.882129,1.12448 h 8.923031 c 6.737415,0 9.026192,-0.081 9.344195,-0.33073 0.23164,-0.1819 0.79805,-1.0451 1.258684,-1.91823 0.460637,-0.87312 1.070996,-1.98455 1.356357,-2.46983 l 0.518835,-0.88233 -0.673902,-0.53009 c -0.370646,-0.29156 -0.840946,-0.85312 -1.045112,-1.24793 -0.342495,-0.66232 -0.301159,-0.86675 0.534453,-2.64317 0.498113,-1.05893 0.905661,-2.08368 0.905661,-2.27723 0,-0.19591 -2.668169,-1.66169 -6.019272,-3.30672 -5.193622,-2.5495 -7.396205,-3.64452 -9.527141,-4.73641 -0.253484,-0.12988 -0.9192,-0.45771 -1.479369,-0.72851 -1.120332,-0.54159 -2.288803,-1.76175 -2.288803,-2.39006 0,-0.22104 0.167989,-0.71792 0.373308,-1.10418 0.20532,-0.38625 3.274089,-6.5325 6.819488,-13.658331 6.269621,-12.601186 6.472621,-12.966112 7.411574,-13.32348 0.96132,-0.365881 0.985931,-0.357261 5.829712,2.041985 2.675372,1.325179 4.996315,2.409417 5.15765,2.409417 0.161338,0 0.333029,0.0893 0.381539,0.198437 0.0485,0.109141 0.56444,0.419902 1.14652,0.690581 0.58209,0.270679 1.23693,0.592649 1.45521,0.715489 0.48178,0.27113 3.41584,1.703519 3.96875,1.937522 0.21828,0.09238 0.75406,0.396077 1.19062,0.67488 0.43657,0.278803 0.98754,0.515617 1.22438,0.526253 0.23684,0.01064 0.57884,0.197932 0.76,0.416213 0.18116,0.218281 0.49576,0.396875 0.69911,0.396875 0.20336,0 0.84126,0.297656 1.41756,0.661458 0.5763,0.363802 1.2142,0.661459 1.41755,0.661459 0.20335,0 0.51796,0.178593 0.69911,0.396875 0.18116,0.218281 0.49576,0.396875 0.69912,0.396875 0.20335,0 0.84125,0.297656 1.41755,0.661458 0.5763,0.363802 1.2142,0.661458 1.41755,0.661458 0.20336,0 0.51796,0.178594 0.69912,0.396871 0.18115,0.21829 0.543,0.39688 0.80409,0.39688 0.2611,0 0.51441,0.0893 0.56292,0.19844 0.12292,0.27657 1.77723,1.124475 2.1939,1.124475 0.18868,0 0.49126,0.17859 0.67242,0.39687 0.18116,0.21828 0.55292,0.39688 0.82615,0.39688 0.27322,0 0.49677,0.11906 0.49677,0.26458 0,0.14552 0.22354,0.26458 0.49677,0.26458 0.27322,0 0.64499,0.1786 0.82614,0.39688 0.18116,0.21829 0.49576,0.39688 0.69912,0.39688 0.20335,0 0.84125,0.29766 1.41755,0.66146 0.5763,0.3638 1.2142,0.66146 1.41755,0.66146 0.20336,0 0.51796,0.17859 0.69912,0.39687 0.18115,0.21829 0.49575,0.39688 0.69911,0.39688 0.20335,0 0.84125,0.29766 1.41755,0.66146 0.5763,0.3638 1.21419,0.66146 1.41755,0.66146 0.20335,0 0.51795,0.17859 0.69911,0.39687 0.18116,0.21828 0.49576,0.39688 0.69911,0.39688 0.20336,0 0.84126,0.29765 1.41756,0.66145 0.5763,0.36381 1.13007,0.66146 1.2306,0.66146 0.17582,0 2.97909,1.36325 3.79648,1.84625 0.21828,0.12898 1.17078,0.60523 2.11667,1.05833 0.94588,0.4531 1.89838,0.92432 2.11666,1.04717 0.21828,0.12284 0.87313,0.44481 1.45521,0.71548 0.58209,0.27068 1.09802,0.58144 1.14653,0.69059 0.0485,0.10914 0.30182,0.19843 0.56292,0.19843 0.26109,0 0.62294,0.1786 0.80409,0.39688 0.18116,0.21828 0.49758,0.39687 0.70317,0.39687 1.02713,0 2.7391,1.61886 2.72806,2.57969 -0.0122,1.06093 -0.78683,1.78467 -4.66972,4.36286 -2.10819,1.39982 -3.63117,2.60057 -3.85923,3.04271 -0.20719,0.4017 -1.06088,2.09958 -1.89708,3.77307 -0.8362,1.67349 -1.70905,3.39989 -1.93965,3.83646 -0.23061,0.43656 -0.53586,1.03187 -0.67833,1.32291 -0.14248,0.29104 -0.36036,0.70776 -0.48419,0.92604 -0.12383,0.21828 -0.29543,0.57547 -0.38133,0.79375 -0.79808,2.02803 -2.16545,3.70417 -3.0218,3.70417 -0.27215,0 -1.05463,-0.29766 -1.73884,-0.66146 -0.68422,-0.3638 -1.39031,-0.66146 -1.5691,-0.66146 -0.17879,0 -0.47329,-0.17859 -0.65445,-0.39687 -0.18115,-0.21828 -0.49575,-0.39688 -0.69911,-0.39688 -0.20335,0 -0.84125,-0.29765 -1.41755,-0.66145 -1.43068,-0.90315 -2.16985,-0.83394 -3.78161,0.35406 -1.77884,1.31115 -2.39519,1.63031 -3.14843,1.63031 -0.33815,0 -3.6989,-1.54299 -7.46833,-3.42886 -3.76944,-1.88588 -6.95607,-3.36549 -7.08141,-3.28802 -0.12535,0.0775 -0.57942,0.81678 -1.00905,1.64293 -1.28959,2.47977 -1.33064,2.51035 -3.18929,2.37591 -1.62484,-0.11753 -1.62793,-0.11639 -2.22334,0.82715 -0.32793,0.51967 -0.68118,1.21274 -0.78501,1.54016 -0.10383,0.32742 -0.29981,0.59531 -0.43553,0.59531 -0.13571,0 -0.24675,0.2311 -0.24675,0.51355 0,0.28246 -0.111524,0.58248 -0.247832,0.66672 -0.136306,0.0842 -0.420757,0.47822 -0.632114,0.87551 -0.211354,0.39729 -0.625393,1.17396 -0.92008,1.72593 -0.925214,1.73297 -1.792769,2.68346 -2.999359,3.28606 -1.144972,0.57182 -1.376511,0.58328 -12.114399,0.59925 l -10.947116,0.0163 -1.517467,1.65605 c -1.608358,1.75523 -3.561365,2.91765 -5.414345,3.2226 -0.582083,0.0958 -1.326224,0.23847 -1.653645,0.31707 l -0.595313,0.14291 z"
         style="fill:#ffffff;stroke-width:0.26458335" />
    </g>
  </g>
</svg>
